<?xml version="1.0" encoding="utf-8"?>
<!-- Generator: Adobe Illustrator 24.1.2, SVG Export Plug-In . SVG Version: 6.00 Build 0)  -->
<svg version="1.1" id="Warstwa_1" xmlns="http://www.w3.org/2000/svg" xmlns:xlink="http://www.w3.org/1999/xlink" x="0px" y="0px"
	 viewBox="0 0 24 24" style="enable-background:new 0 0 24 24;" xml:space="preserve">
<style type="text/css">
	.st0{fill:#F2E4D3;}
</style>
<path class="st0" d="M22,6c0-0.6-0.4-1-1-1H8.4C7.9,5,7.5,5.2,7.2,5.5c-1.1,1.3-3.8,4.4-5,5.8C2.1,11.5,2,11.8,2,12s0.1,0.5,0.2,0.7
	c1.2,1.4,3.9,4.6,5,5.8C7.5,18.8,7.9,19,8.4,19H21c0.6,0,1-0.4,1-1C22,15.4,22,8.6,22,6z M14,10.9l1.7-1.7C15.9,9.1,16.1,9,16.3,9
	C16.7,9,17,9.3,17,9.7c0,0.2-0.1,0.4-0.2,0.5L15.1,12l1.7,1.7c0.1,0.1,0.2,0.3,0.2,0.5c0,0.4-0.3,0.8-0.8,0.8
	c-0.2,0-0.4-0.1-0.5-0.2L14,13.1l-1.7,1.7C12.2,14.9,12,15,11.8,15c-0.4,0-0.8-0.3-0.8-0.8c0-0.2,0.1-0.4,0.2-0.5l1.7-1.7l-1.8-1.8
	c-0.1-0.1-0.2-0.3-0.2-0.5c0-0.4,0.3-0.8,0.8-0.8c0.2,0,0.4,0.1,0.5,0.2L14,10.9z"/>
</svg>
